<svg
    xmlns="http://www.w3.org/2000/svg"
    enable-background="new 0 0 24 24"
    height="24"
    viewBox="0 0 52 52"
    width="24"
    focusable="false"
    aria-hidden="true"
    style="
        pointer-events: none;
        display: inherit;
        width: 100%;
        height: 100%;
        fill: #cccccc;
    "
>
    <path
        d="M8.1,22H3.2c-1,0-1.5,0.9-0.9,1.4l8,8.3c0.4,0.3,1,0.3,1.4,0l8-8.3c0.6-0.6,0.1-1.4-0.9-1.4h-4.7c0-5,4.9-10,9.9-10V6C15,6,8.1,13,8.1,22z"
    />
    <path
        d="M41.8,20.3c-0.4-0.3-1-0.3-1.4,0l-8,8.3c-0.6,0.6-0.1,1.4,0.9,1.4h4.8c0,6-4.1,10-10.1,10v6c9,0,16.1-7,16.1-16H49c1,0,1.5-0.9,0.9-1.4L41.8,20.3z"
    />
</svg>